<svg width="21" height="21" viewBox="0 0 21 21" fill="none" xmlns="http://www.w3.org/2000/svg">
    <g clip-path="url(#clip0_249_1587)">
        <path d="M15.5388 12.067C15.4979 12.0474 13.967 11.2935 13.6949 11.1956C13.5838 11.1557 13.4649 11.1168 13.3383 11.1168C13.1316 11.1168 12.9579 11.2198 12.8227 11.4221C12.6697 11.6495 12.2068 12.1906 12.0637 12.3523C12.045 12.3736 12.0195 12.3991 12.0043 12.3991C11.9906 12.3991 11.7536 12.3015 11.6819 12.2704C10.0396 11.557 8.79305 9.84148 8.62211 9.55219C8.5977 9.5106 8.59668 9.49171 8.59648 9.49171C8.60248 9.46969 8.6577 9.41432 8.6862 9.38575C8.76959 9.30325 8.85993 9.1945 8.94734 9.0893C8.98873 9.03946 9.03018 8.98955 9.07089 8.9425C9.1977 8.79496 9.25416 8.68041 9.31961 8.54773L9.35391 8.4788C9.51373 8.16128 9.37723 7.89332 9.33311 7.8068C9.29691 7.73439 8.65048 6.17425 8.58175 6.01035C8.41648 5.61482 8.19809 5.43066 7.89461 5.43066C7.86645 5.43066 7.89461 5.43066 7.77652 5.43564C7.63273 5.44171 6.84966 5.5448 6.50343 5.76305C6.13627 5.99453 5.51514 6.73239 5.51514 8.03003C5.51514 9.19791 6.25627 10.3006 6.57448 10.72C6.58239 10.7306 6.59691 10.752 6.61798 10.7829C7.83659 12.5626 9.35575 13.8815 10.8958 14.4967C12.3784 15.0889 13.0805 15.1573 13.4796 15.1573H13.4797C13.6474 15.1573 13.7816 15.1442 13.9001 15.1325L13.9752 15.1254C14.4874 15.08 15.6129 14.4967 15.869 13.7853C16.0706 13.2249 16.1238 12.6126 15.9896 12.3904C15.8977 12.2393 15.7393 12.1633 15.5388 12.067Z" fill="white"/>
        <path d="M10.6864 0C4.99894 0 0.371848 4.59232 0.371848 10.237C0.371848 12.0627 0.860439 13.8498 1.78601 15.4139L0.0144387 20.6397C-0.0185613 20.7372 0.00598416 20.8449 0.0780523 20.9183C0.130075 20.9714 0.200643 21 0.272711 21C0.300325 21 0.328143 20.9958 0.35528 20.9872L5.80437 19.2556C7.29551 20.0523 8.98082 20.4729 10.6865 20.4729C16.3734 20.473 21 15.8811 21 10.237C21 4.59232 16.3734 0 10.6864 0ZM10.6864 18.3405C9.08146 18.3405 7.52698 17.8771 6.19076 17.0003C6.14582 16.9707 6.09367 16.9556 6.04117 16.9556C6.01342 16.9556 5.9856 16.9598 5.95853 16.9684L3.22887 17.8361L4.11005 15.2364C4.13855 15.1523 4.1243 15.0595 4.0718 14.9877C3.05426 13.5974 2.51637 11.9547 2.51637 10.237C2.51637 5.76818 6.18142 2.13245 10.6863 2.13245C15.1907 2.13245 18.8553 5.76818 18.8553 10.237C18.8554 14.7053 15.1908 18.3405 10.6864 18.3405Z" fill="white"/>
    </g>
    <defs>
        <clipPath id="clip0_249_1587">
            <rect width="21" height="21" fill="white"/>
        </clipPath>
    </defs>
</svg>
