<svg width="16" height="15" viewBox="0 0 16 15" fill="none" xmlns="http://www.w3.org/2000/svg">
    <path d="M14.9458 10.2872L11.767 8.92435C11.3926 8.76232 10.9534 8.87159 10.6991 9.18743L9.40741 10.7641C7.37858 9.76807 5.73061 8.11843 4.73451 6.09146L6.31099 4.80127C6.62593 4.54403 6.73316 4.10726 6.5739 3.73286L5.21129 0.55427C5.03275 0.146767 4.59311 -0.0761739 4.16274 0.0237246L1.20958 0.704851C0.792092 0.800062 0.499999 1.16772 0.499999 1.5972C0.5 8.98851 6.51179 15 13.9035 15C14.3333 15 14.6998 14.708 14.7956 14.2905L15.4767 11.3374C15.5754 10.9083 15.3531 10.463 14.9458 10.2872Z" fill="white"/>
</svg>
