<svg width="76" height="47" viewBox="0 0 76 47" fill="none" xmlns="http://www.w3.org/2000/svg">
    <g clip-path="url(#clip0_146_812)">
        <mask id="mask0_146_812" style="mask-type:luminance" maskUnits="userSpaceOnUse" x="0" y="0" width="76" height="47">
            <path d="M75.3861 0H0.177734V47H75.3861V0Z" fill="white"/>
        </mask>
        <g mask="url(#mask0_146_812)">
            <path d="M69.1371 46.9909H0.177734L6.42782 26.5112H75.3861L69.1371 46.9909Z" fill="#00AEC7"/>
            <path d="M29.5958 18.833V6.02662H35.2148V10.2682H37.7988V6.02662H43.4169V18.833H37.7988V14.5896H35.2148V18.833H29.5958ZM57.4001 11.7121L59.5336 6.02662H54.0551L52.3495 10.2692H51.3449V6.02662H45.7262V18.834H51.3449V14.5905H52.6879L54.3944 18.834H60.0019L57.4001 11.7121ZM67.9521 14.9323C66.5961 14.9323 66.2778 13.87 66.2778 13.0422C66.2778 12.2181 66.5961 11.1805 67.9521 11.1805C69.2803 11.1805 69.5995 12.2181 69.5995 13.0422C69.5995 13.87 69.2803 14.9323 67.9521 14.9323ZM69.9719 7.45251C68.2704 7.45251 67.1019 8.11611 66.3051 8.96954C66.3315 7.8778 67.1274 6.73292 68.2171 6.28199C70.104 5.48169 72.2832 6.04086 73.825 4.68238V0.00976562C73.825 0.00976562 72.5066 0.55183 70.0753 0.83853C68.6142 1.01131 66.5419 1.47648 64.7105 2.63371C62.4238 4.071 60.8037 6.44054 60.8037 11.2327C60.8037 17.4897 64.4164 19.246 68.1374 19.246C71.8047 19.246 75.0736 17.3834 75.0736 13.2823C75.0736 9.34263 72.735 7.45251 69.9719 7.45251ZM19.9213 14.7509C19.1491 14.7509 18.5094 14.2962 18.2697 13.8434V11.0153C18.536 10.5615 19.1491 10.1087 19.9213 10.1087C21.2782 10.1087 21.8647 11.2821 21.8647 12.4299C21.8647 12.5722 21.8553 12.7175 21.8363 12.858C21.7074 13.8519 21.1086 14.7509 19.9213 14.7509ZM27.6429 12.4299C27.6429 9.27996 26.2159 6.30285 22.9999 5.70765C22.9269 5.69436 22.853 5.682 22.7772 5.67157C22.5887 5.64404 22.3934 5.6222 22.1916 5.61177C22.058 5.60416 21.9225 5.60036 21.7842 5.60036C21.6658 5.60036 21.5492 5.60322 21.4327 5.60984C21.4279 5.60984 21.4241 5.60984 21.4184 5.61177C20.3904 5.67251 19.4883 5.99336 18.8003 6.47563C18.3256 6.79272 17.9238 7.1715 17.6045 7.57306L17.1317 6.02662H12.6772V23.949H18.2962V18.0594C18.6904 18.4125 19.1869 18.7172 19.7848 18.9299C20.3411 19.1558 20.9806 19.2603 21.7842 19.2603C25.8596 19.2603 27.6429 15.9509 27.6429 12.4299Z" fill="#333E48"/>
        </g>
    </g>
    <defs>
        <clipPath id="clip0_146_812">
            <rect width="75.2083" height="47" fill="white" transform="translate(0.177734)"/>
        </clipPath>
    </defs>
</svg>
