<svg width="172" height="52" viewBox="0 0 172 52" fill="none" xmlns="http://www.w3.org/2000/svg">
    <g clip-path="url(#clip0_255_3240)" filter="url(#filter0_d_255_3240)">
        <path d="M4 17.0977L5.75341 19.1475L24.6762 3.53805L42.5856 19.1234L44.3951 17.1184L24.7218 0L4 17.0977Z" fill="white"/>
        <path d="M4.34766 28.2666L5.40672 30.7332L24.568 22.7821L42.9402 30.7263L44.0414 28.2735L24.5925 19.8641L4.34766 28.2666Z" fill="white"/>
        <path d="M43.4906 39.5387H4.87695V42.2155H43.4906V39.5387Z" fill="white"/>
        <path d="M75.0862 29.2243H77.8531L84.0111 11.1206H81.5107L76.4293 25.9136L71.3479 11.1206H68.9282L63.7416 25.8344L58.7655 11.1206H56.0547L62.2127 29.2243H65.0321L70.0609 14.7655L75.0862 29.2243Z" fill="white"/>
        <path d="M97.5199 27.1538L96.1242 25.5519C95.1072 26.6543 93.7641 27.2055 92.0949 27.2055C90.7272 27.2055 89.5805 26.8403 88.6582 26.1065C87.7359 25.3727 87.1958 24.4047 87.038 23.1955H98.358C98.3931 22.8854 98.4106 22.6339 98.4106 22.4444C98.4106 21.0664 98.1161 19.84 97.5269 18.772C96.9378 17.7041 96.1242 16.8704 95.0792 16.2778C94.0341 15.6818 92.8453 15.3856 91.5127 15.3856C90.1801 15.3856 88.9808 15.6818 87.9182 16.2778C86.8557 16.8738 86.021 17.7041 85.4179 18.772C84.8112 19.84 84.5096 21.0389 84.5096 22.3686C84.5096 23.7122 84.8217 24.9214 85.4459 25.9894C86.0701 27.0573 86.9503 27.891 88.0901 28.4836C89.2298 29.0796 90.5378 29.3758 92.0142 29.3758C93.1715 29.3758 94.22 29.1864 95.1598 28.8074C96.0997 28.4319 96.8852 27.8773 97.5199 27.1538ZM88.4758 18.5688C89.2929 17.8453 90.3064 17.4836 91.5162 17.4836C92.7261 17.4836 93.7396 17.8488 94.5567 18.5826C95.3737 19.3163 95.8507 20.2603 95.9909 21.4144H87.0415C87.1818 20.2396 87.6587 19.2922 88.4758 18.5688Z" fill="white"/>
        <path d="M104.442 10.0319H101.914V29.2208H104.442V10.0319Z" fill="white"/>
        <path d="M111.79 10.032H109.262V29.2208H111.79V10.032Z" fill="white"/>
        <path d="M119.132 15.5165H116.604V29.2243H119.132V15.5165Z" fill="white"/>
        <path d="M117.87 12.8776C118.36 12.8776 118.767 12.7191 119.093 12.3987C119.42 12.0783 119.581 11.6891 119.581 11.2205C119.581 10.7727 119.42 10.3972 119.093 10.094C118.767 9.79428 118.36 9.6427 117.87 9.6427C117.379 9.6427 116.968 9.80117 116.646 10.1216C116.32 10.4419 116.158 10.8243 116.158 11.2722C116.158 11.7201 116.32 12.099 116.646 12.4091C116.968 12.7226 117.375 12.8776 117.87 12.8776Z" fill="white"/>
        <path d="M135.72 26.4303L133.798 25.2418C133.36 25.8964 132.816 26.389 132.167 26.7163C131.519 27.0436 130.8 27.2089 130.007 27.2089C129.095 27.2089 128.275 27.0091 127.545 26.6129C126.816 26.2168 126.248 25.6518 125.834 24.918C125.42 24.1842 125.217 23.3367 125.217 22.3721C125.217 21.4247 125.424 20.5841 125.834 19.8503C126.248 19.1165 126.816 18.555 127.545 18.1554C128.275 17.7592 129.095 17.5594 130.007 17.5594C130.796 17.5594 131.515 17.7247 132.167 18.052C132.816 18.3793 133.36 18.8719 133.798 19.5265L135.72 18.3104C135.176 17.363 134.408 16.6396 133.416 16.1366C132.423 15.637 131.298 15.3856 130.032 15.3856C128.611 15.3856 127.342 15.6818 126.227 16.2778C125.112 16.8738 124.238 17.7006 123.607 18.7617C122.976 19.8228 122.66 21.0251 122.66 22.3686C122.66 23.7122 122.976 24.9145 123.607 25.9756C124.238 27.0367 125.112 27.8669 126.227 28.4698C127.342 29.0727 128.611 29.3758 130.032 29.3758C131.294 29.3758 132.423 29.1209 133.416 28.6145C134.405 28.1081 135.176 27.3777 135.72 26.4303Z" fill="white"/>
        <path d="M143.512 21.3351C141.566 21.3351 140.142 21.7003 139.248 22.4341C138.353 23.1679 137.904 24.136 137.904 25.3452C137.904 26.5509 138.374 27.5259 139.314 28.2665C140.254 29.0072 141.502 29.3793 143.067 29.3793C144.136 29.3793 145.062 29.2105 145.844 28.8763C146.626 28.5387 147.226 28.053 147.646 27.4156V29.2277H150.042V20.9458C150.042 19.1028 149.53 17.7144 148.502 16.7808C147.475 15.8506 145.995 15.3856 144.066 15.3856C142.944 15.3856 141.881 15.5371 140.882 15.8369C139.882 16.14 139.023 16.5741 138.301 17.1425L139.353 19.0063C139.896 18.5584 140.563 18.2002 141.352 17.9314C142.141 17.6627 142.947 17.5318 143.775 17.5318C145.002 17.5318 145.935 17.8178 146.566 18.3862C147.198 18.9546 147.513 19.7745 147.513 20.8425V21.3351H143.512ZM147.513 25.0351C147.198 25.8102 146.689 26.4097 145.988 26.8334C145.286 27.2572 144.452 27.4673 143.487 27.4673C142.523 27.4673 141.769 27.2675 141.222 26.8713C140.678 26.4751 140.405 25.9308 140.405 25.2418C140.405 23.8293 141.474 23.1197 143.617 23.1197H147.513V25.0351Z" fill="white"/>
        <path d="M161.677 17.611C162.887 17.611 163.817 17.9486 164.469 18.6204C165.118 19.2922 165.444 20.2912 165.444 21.621V29.2242H167.972V21.3351C167.972 19.3852 167.45 17.9073 166.405 16.8979C165.36 15.8885 163.95 15.3855 162.179 15.3855C161.074 15.3855 160.085 15.575 159.219 15.9539C158.35 16.3329 157.662 16.8772 157.154 17.5834V15.513H154.73V29.2208H157.259V22.1619C157.259 20.6977 157.655 19.5712 158.444 18.7857C159.23 18.0037 160.306 17.611 161.677 17.611Z" fill="white"/>
        <path d="M62.2374 37.5199C61.8622 37.3132 61.4378 37.2064 60.9609 37.2064C60.477 37.2064 60.0526 37.3167 59.6809 37.5372C59.3092 37.7576 59.0181 38.0642 58.8112 38.4535C58.8428 37.6612 59.0322 37.0583 59.3793 36.6518C59.723 36.2453 60.2666 35.9628 61.003 35.8009L63.1737 35.3117L63.058 34.6881L60.7505 35.2083C59.8563 35.415 59.2005 35.8043 58.7797 36.3796C58.3588 36.9549 58.1484 37.7852 58.1484 38.8669C58.1484 39.9039 58.3834 40.7169 58.8533 41.306C59.3232 41.8951 59.9825 42.188 60.8382 42.188C61.3467 42.188 61.7955 42.0812 62.1883 41.871C62.5811 41.6609 62.8826 41.3646 63.1036 40.9822C63.321 40.5998 63.4297 40.1657 63.4297 39.6696C63.4297 39.1908 63.3245 38.7636 63.1176 38.3881C62.9037 38.0195 62.6126 37.7301 62.2374 37.5199ZM62.4829 40.6963C62.3216 40.9925 62.1006 41.2199 61.8166 41.3818C61.5325 41.5437 61.2134 41.6264 60.8522 41.6264C60.4945 41.6264 60.1719 41.5437 59.8843 41.3818C59.5968 41.2199 59.3758 40.9891 59.2145 40.6963C59.0532 40.4034 58.976 40.0693 58.976 39.6972C58.976 39.3251 59.0567 38.9978 59.2145 38.7188C59.3758 38.4363 59.5968 38.2193 59.8808 38.0608C60.1649 37.9023 60.4875 37.8265 60.8522 37.8265C61.2169 37.8265 61.543 37.9058 61.8236 38.0608C62.1076 38.2193 62.3286 38.4363 62.4829 38.7188C62.6407 39.0013 62.7178 39.3286 62.7178 39.6972C62.7213 40.0693 62.6407 40.4 62.4829 40.6963Z" fill="white"/>
        <path d="M70.8896 37.3717C70.5003 37.1547 70.0654 37.0444 69.585 37.0444C69.1361 37.0444 68.7293 37.1374 68.3646 37.3235C67.9999 37.5095 67.7019 37.7713 67.4704 38.1055C67.239 38.4431 67.0987 38.829 67.0461 39.263H65.8643V37.0823H65.1699V42.1328H65.8643V39.8866H67.0391C67.0776 40.3344 67.2144 40.7306 67.4459 41.0786C67.6773 41.4231 67.9789 41.6952 68.3506 41.8916C68.7223 42.088 69.1361 42.1844 69.592 42.1844C70.076 42.1844 70.5108 42.0742 70.8966 41.8537C71.2858 41.6332 71.5874 41.3266 71.8118 40.9373C72.0328 40.548 72.145 40.1036 72.145 39.611C72.145 39.1183 72.0328 38.6774 71.8118 38.2846C71.5839 37.8954 71.2788 37.5888 70.8896 37.3717ZM71.2087 40.6376C71.0474 40.9373 70.8229 41.1716 70.5389 41.3404C70.2548 41.5058 69.9392 41.5884 69.585 41.5884C69.2343 41.5884 68.9152 41.5058 68.6312 41.3404C68.3471 41.175 68.1227 40.9408 67.9614 40.6376C67.8 40.3379 67.7159 39.9934 67.7159 39.611C67.7159 39.2251 67.7965 38.8841 67.9614 38.5844C68.1227 38.2846 68.3471 38.0504 68.6312 37.8885C68.9152 37.7266 69.2308 37.6439 69.585 37.6439C69.9357 37.6439 70.2548 37.7266 70.5389 37.8885C70.8229 38.0504 71.0438 38.2846 71.2087 38.5844C71.37 38.8841 71.4542 39.2286 71.4542 39.611C71.4542 39.9934 71.37 40.3379 71.2087 40.6376Z" fill="white"/>
        <path d="M77.8358 37.3684C77.443 37.1548 77.0081 37.048 76.5242 37.048C76.0929 37.048 75.7071 37.1375 75.367 37.3167C75.0233 37.4958 74.7498 37.7508 74.5393 38.0849V37.0859H73.873V44.0001H74.5674V41.1855C74.7813 41.5127 75.0584 41.7608 75.395 41.9296C75.7317 42.0984 76.1069 42.1845 76.5242 42.1845C77.0117 42.1845 77.45 42.0777 77.8393 41.8641C78.2285 41.6505 78.5301 41.3474 78.7545 40.9581C78.9755 40.5688 79.0877 40.1209 79.0877 39.6145C79.0877 39.115 78.9755 38.6706 78.7545 38.2813C78.5336 37.8851 78.225 37.582 77.8358 37.3684ZM78.1444 40.6377C77.9795 40.9374 77.7481 41.1717 77.4535 41.3336C77.1589 41.4955 76.8328 41.5782 76.4751 41.5782C76.1104 41.5782 75.7808 41.4955 75.4932 41.3336C75.2021 41.1717 74.9742 40.9374 74.8094 40.6377C74.6445 40.338 74.5604 39.9935 74.5604 39.6111C74.5604 39.2252 74.6445 38.8876 74.8094 38.5879C74.9742 38.2916 75.2021 38.0574 75.4932 37.892C75.7843 37.7266 76.1104 37.644 76.4751 37.644C76.8328 37.644 77.1589 37.7266 77.4535 37.892C77.7481 38.0574 77.976 38.2916 78.1444 38.5879C78.3092 38.8842 78.3933 39.2252 78.3933 39.6111C78.3933 39.9935 78.3092 40.338 78.1444 40.6377Z" fill="white"/>
        <path d="M84.2986 37.3717C83.9024 37.1547 83.4535 37.0444 82.959 37.0444C82.4646 37.0444 82.0157 37.1547 81.6194 37.3717C81.2232 37.5888 80.9076 37.8954 80.6796 38.2846C80.4517 38.6739 80.3359 39.1183 80.3359 39.611C80.3359 40.1036 80.4482 40.5446 80.6796 40.9373C80.9076 41.3266 81.2197 41.6332 81.6194 41.8537C82.0157 42.0742 82.4646 42.1844 82.959 42.1844C83.4535 42.1844 83.9024 42.0742 84.2986 41.8537C84.6949 41.6332 85.007 41.3266 85.2315 40.9373C85.4559 40.548 85.5681 40.1036 85.5681 39.611C85.5681 39.1183 85.4559 38.6774 85.2315 38.2846C85.007 37.8954 84.6949 37.5888 84.2986 37.3717ZM84.6213 40.6376C84.46 40.9373 84.232 41.1716 83.941 41.3335C83.6499 41.4954 83.3238 41.5781 82.959 41.5781C82.5943 41.5781 82.2682 41.4954 81.9771 41.3335C81.6861 41.1716 81.4581 40.9373 81.2933 40.6376C81.1285 40.3379 81.0443 39.9934 81.0443 39.611C81.0443 39.2251 81.1285 38.8841 81.2933 38.5844C81.4581 38.2846 81.6861 38.0504 81.9771 37.8885C82.2682 37.7266 82.5943 37.6439 82.959 37.6439C83.3238 37.6439 83.6499 37.7266 83.941 37.8885C84.232 38.0504 84.4565 38.2846 84.6213 38.5844C84.7826 38.8841 84.8668 39.2286 84.8668 39.611C84.8632 39.9934 84.7826 40.3379 84.6213 40.6376Z" fill="white"/>
        <path d="M94.0542 39.3217H90.8174V37.0824H90.123V42.1363H90.8174V39.9073H94.0542V42.1363H94.7485V37.0824H94.0542V39.3217Z" fill="white"/>
        <path d="M100.273 37.3717C99.8946 37.1547 99.4667 37.0444 98.9933 37.0444C98.5164 37.0444 98.0885 37.1547 97.7063 37.3717C97.3241 37.5888 97.026 37.8954 96.8086 38.2846C96.5911 38.6739 96.4824 39.1183 96.4824 39.611C96.4824 40.1036 96.5946 40.5446 96.8261 40.9373C97.054 41.3266 97.3732 41.6332 97.7799 41.8537C98.1867 42.0742 98.6567 42.1844 99.1827 42.1844C99.593 42.1844 99.9682 42.1155 100.312 41.9743C100.656 41.833 100.94 41.6298 101.168 41.3611L100.778 40.9201C100.582 41.1371 100.35 41.3025 100.084 41.4162C99.8174 41.5299 99.5228 41.585 99.2037 41.585C98.6356 41.585 98.1692 41.4231 97.7975 41.0992C97.4258 40.7754 97.2224 40.3517 97.1803 39.828H101.483L101.494 39.6179C101.494 39.1183 101.385 38.6739 101.171 38.2881C100.947 37.8919 100.649 37.5888 100.273 37.3717ZM97.1733 39.3113C97.2189 38.8117 97.4082 38.4087 97.7449 38.0952C98.0815 37.7851 98.4953 37.6301 98.9933 37.6301C99.4948 37.6301 99.9121 37.7851 100.249 38.0952C100.585 38.4052 100.775 38.8117 100.82 39.3113H97.1733Z" fill="white"/>
        <path d="M107.378 37.0824H103.584L103.517 38.7739C103.472 39.6386 103.387 40.3104 103.261 40.7893C103.135 41.2681 102.903 41.5196 102.556 41.5368H102.262V43.3524H102.917V42.1328H107.522V43.3524H108.178V41.5368H107.375V37.0824H107.378ZM106.684 41.5403H103.479C103.714 41.368 103.875 41.0476 103.966 40.586C104.057 40.1209 104.12 39.5318 104.152 38.8153L104.212 37.6922H106.684V41.5403Z" fill="white"/>
        <path d="M113.059 39.5215C113.333 39.4251 113.546 39.2804 113.701 39.084C113.855 38.8876 113.932 38.6534 113.932 38.3778C113.932 37.9609 113.767 37.6405 113.434 37.4166C113.101 37.1927 112.642 37.079 112.056 37.079H109.787V42.1294H112.123C112.782 42.1294 113.276 42.0123 113.61 41.7746C113.943 41.5369 114.108 41.1992 114.108 40.7548C114.104 40.0968 113.757 39.6834 113.059 39.5215ZM110.457 37.6233H112C112.396 37.6233 112.701 37.6922 112.915 37.8334C113.126 37.9747 113.234 38.1848 113.234 38.4673C113.234 38.7498 113.129 38.9634 112.915 39.1116C112.705 39.2597 112.4 39.332 112 39.332H110.457V37.6233ZM113.087 41.3853C112.866 41.5265 112.533 41.5954 112.091 41.5954H110.457V39.8385H112.158C112.596 39.8385 112.915 39.9108 113.115 40.0555C113.318 40.2002 113.417 40.4207 113.417 40.7238C113.42 41.0235 113.311 41.244 113.087 41.3853Z" fill="white"/>
        <path d="M116.675 41.0993V37.0824H115.98V42.1363H116.608L120.031 38.1194V42.1363H120.725V37.0824H120.108L116.675 41.0993Z" fill="white"/>
        <path d="M129.736 37.0824H128.982L127.467 39.301H126.352V37.0824H125.658V39.301H124.546L123.038 37.0824H122.288L123.989 39.5318L122.141 42.1363H122.972L124.546 39.8867H125.658V42.1363H126.352V39.8867H127.467L129.053 42.1363H129.884L128.036 39.5422L129.736 37.0824Z" fill="white"/>
        <path d="M131.985 41.0993V37.0824H131.291V42.1363H131.919L135.338 38.1194V42.1363H136.032V37.0824H135.419L131.985 41.0993Z" fill="white"/>
        <path d="M141.156 40.7238L138.975 37.0824H138.273V42.1363H138.908V38.1297L140.988 41.5196H141.303L143.386 38.14V42.1363H144.021V37.0824H143.376L141.156 40.7238Z" fill="white"/>
        <path d="M149.709 37.3717C149.313 37.1547 148.864 37.0444 148.369 37.0444C147.875 37.0444 147.426 37.1547 147.03 37.3717C146.633 37.5888 146.318 37.8954 146.09 38.2846C145.862 38.6739 145.746 39.1183 145.746 39.611C145.746 40.1036 145.858 40.5446 146.09 40.9373C146.318 41.3266 146.63 41.6332 147.03 41.8537C147.426 42.0742 147.875 42.1844 148.369 42.1844C148.864 42.1844 149.313 42.0742 149.709 41.8537C150.105 41.6332 150.417 41.3266 150.642 40.9373C150.866 40.548 150.978 40.1036 150.978 39.611C150.978 39.1183 150.866 38.6774 150.642 38.2846C150.417 37.8954 150.105 37.5888 149.709 37.3717ZM150.031 40.6376C149.867 40.9373 149.642 41.1716 149.351 41.3335C149.06 41.4954 148.734 41.5781 148.369 41.5781C148.004 41.5781 147.675 41.4954 147.387 41.3335C147.096 41.1716 146.868 40.9373 146.703 40.6376C146.539 40.3379 146.454 39.9934 146.454 39.611C146.454 39.2251 146.539 38.8841 146.703 38.5844C146.868 38.2846 147.096 38.0504 147.387 37.8885C147.678 37.7266 148.004 37.6439 148.369 37.6439C148.734 37.6439 149.06 37.7266 149.351 37.8885C149.642 38.0504 149.867 38.2846 150.031 38.5844C150.193 38.8841 150.277 39.2286 150.277 39.611C150.277 39.9934 150.196 40.3379 150.031 40.6376Z" fill="white"/>
        <path d="M153.867 37.885C154.165 37.7231 154.498 37.6404 154.87 37.6404C155.175 37.6404 155.459 37.7024 155.718 37.8265C155.978 37.9505 156.195 38.14 156.363 38.388L156.882 38.0435C156.679 37.7162 156.405 37.4682 156.055 37.2994C155.708 37.1306 155.311 37.0444 154.866 37.0444C154.358 37.0444 153.902 37.1547 153.502 37.3717C153.102 37.5888 152.786 37.8954 152.559 38.2846C152.331 38.6739 152.215 39.1183 152.215 39.611C152.215 40.1036 152.327 40.548 152.559 40.9408C152.79 41.3335 153.102 41.6401 153.502 41.8571C153.902 42.0742 154.358 42.1844 154.866 42.1844C155.304 42.1844 155.697 42.0983 156.048 41.9295C156.398 41.7607 156.676 41.5126 156.879 41.1854L156.36 40.8409C156.192 41.0889 155.974 41.2749 155.715 41.399C155.455 41.5195 155.171 41.5815 154.866 41.5815C154.494 41.5815 154.161 41.4989 153.863 41.3369C153.565 41.175 153.334 40.9442 153.169 40.6445C153.004 40.3482 152.92 40.0037 152.92 39.611C152.92 39.2251 153.004 38.8841 153.169 38.5844C153.341 38.2812 153.572 38.0504 153.867 37.885Z" fill="white"/>
        <path d="M157.412 37.6887H159.358V42.1363H160.053V37.6887H161.996V37.0824H157.412V37.6887Z" fill="white"/>
        <path d="M167.382 37.0824L163.952 41.0993V37.0824H163.258V42.1363H163.882L167.305 38.1194V42.1363H167.999V37.0824H167.382Z" fill="white"/>
    </g>
    <defs>
        <filter id="filter0_d_255_3240" x="0" y="0" width="172" height="52" filterUnits="userSpaceOnUse" color-interpolation-filters="sRGB">
            <feFlood flood-opacity="0" result="BackgroundImageFix"/>
            <feColorMatrix in="SourceAlpha" type="matrix" values="0 0 0 0 0 0 0 0 0 0 0 0 0 0 0 0 0 0 127 0" result="hardAlpha"/>
            <feOffset dy="4"/>
            <feGaussianBlur stdDeviation="2"/>
            <feComposite in2="hardAlpha" operator="out"/>
            <feColorMatrix type="matrix" values="0 0 0 0 0 0 0 0 0 0 0 0 0 0 0 0 0 0 0.25 0"/>
            <feBlend mode="normal" in2="BackgroundImageFix" result="effect1_dropShadow_255_3240"/>
            <feBlend mode="normal" in="SourceGraphic" in2="effect1_dropShadow_255_3240" result="shape"/>
        </filter>
        <clipPath id="clip0_255_3240">
            <rect width="164" height="44" fill="white" transform="translate(4)"/>
        </clipPath>
    </defs>
</svg>
