<svg width="36" height="35" viewBox="0 0 36 35" fill="none" xmlns="http://www.w3.org/2000/svg">
    <path d="M12.6555 27.4329C12.6624 26.7288 12.676 26.0247 12.6829 25.3206C12.6829 25.1565 12.7034 25.177 12.5462 25.1086C11.6712 24.76 10.8577 24.3225 10.1399 23.7073C9.38112 23.0579 8.7864 22.2922 8.3489 21.3967C7.93191 20.5354 7.69948 19.6194 7.5696 18.676C7.52175 18.3069 7.49441 17.9377 7.49441 17.5686C7.49441 17.22 7.43972 16.8713 7.43288 16.5227C7.42605 16.2766 7.41921 16.0237 7.42605 15.7776C7.43288 15.2717 7.38503 14.7659 7.40554 14.26C7.44655 13.1116 7.65163 11.9905 8.1028 10.9241C8.74538 9.40649 9.79812 8.25806 11.2337 7.45142C12.3137 6.84985 13.4622 6.46704 14.679 6.2688C15.4309 6.14575 16.1829 6.07739 16.9417 6.05688C17.844 6.02954 18.7464 6.03638 19.6555 6.05005C20.8176 6.06372 21.9661 6.1731 23.094 6.44653C24.1673 6.69946 25.179 7.10278 26.1087 7.69751C27.2366 8.41528 28.0979 9.36548 28.679 10.5754C29.0413 11.3206 29.26 12.1067 29.4036 12.9202C29.5061 13.5217 29.5471 14.1233 29.5403 14.7317C29.5335 15.3743 29.5198 16.0168 29.4788 16.6526C29.4514 17.0901 29.4514 17.5276 29.4309 17.9651C29.3557 19.175 29.1096 20.344 28.5764 21.4377C27.9202 22.7776 26.929 23.7893 25.6301 24.5208C24.5569 25.1223 23.4085 25.4983 22.2053 25.7034C21.262 25.8606 20.305 25.9358 19.3479 25.9358C18.76 25.9358 18.1721 25.929 17.5842 25.9358C17.2835 25.9358 16.9827 25.9426 16.6819 25.9084C16.5862 25.9016 16.5178 25.929 16.4563 26.0041C15.9846 26.551 15.513 27.0979 15.0344 27.6448C14.4466 28.3215 13.8587 28.9983 13.2776 29.6682C13.2161 29.7366 13.1477 29.8049 13.0725 29.8528C12.888 29.9758 12.6966 29.9075 12.6487 29.6887C12.635 29.6409 12.6419 29.5793 12.6419 29.5315C12.635 28.8342 12.6487 28.1301 12.6555 27.4329Z" fill="white"/>
    <path d="M11.7188 12.2982C11.7393 11.4642 12.1221 10.8353 12.8125 10.3841C13.0996 10.1927 13.4141 10.0423 13.7559 9.97396C14.1113 9.89877 14.4531 9.94662 14.7539 10.1722C14.9521 10.3158 15.1162 10.4935 15.2803 10.6712C15.8271 11.2728 16.292 11.9222 16.668 12.6468C16.7295 12.7699 16.7842 12.8997 16.8252 13.0365C16.9414 13.4261 16.8525 13.7679 16.5928 14.0687C16.4971 14.1781 16.3877 14.2738 16.2715 14.3626C16.1621 14.4378 16.0527 14.5199 15.9502 14.6156C15.7109 14.8411 15.6426 15.1146 15.7178 15.429C15.7451 15.5589 15.793 15.682 15.8408 15.7982C16.1211 16.4134 16.4971 16.9671 16.9824 17.4456C17.2695 17.7259 17.5771 17.972 17.9189 18.1839C18.2471 18.389 18.5752 18.5804 18.9443 18.7103C19.2861 18.8333 19.5459 18.7581 19.7715 18.471C19.8672 18.348 19.9492 18.2181 20.0586 18.1019C20.2637 17.8831 20.4961 17.7191 20.79 17.6507C21.1113 17.5755 21.4189 17.6302 21.7129 17.7601C21.9932 17.8763 22.2393 18.054 22.4854 18.2249C22.9775 18.5667 23.4561 18.929 23.9209 19.305C24.0439 19.4076 24.1533 19.5238 24.2559 19.6536C24.4951 19.9681 24.543 20.3167 24.4404 20.6859C24.3447 21.0413 24.167 21.349 23.9346 21.6292C23.5312 22.1214 23.0391 22.4906 22.4307 22.6888C22.2666 22.7435 22.1025 22.7777 21.9316 22.7913C21.7129 22.8119 21.5078 22.7367 21.3027 22.6751C21.1045 22.6204 20.9199 22.5247 20.7354 22.4427C19.8125 22.0326 18.9238 21.5472 18.083 20.9867C16.8184 20.1458 15.6904 19.1615 14.7061 18.0062C13.9746 17.1449 13.3389 16.2152 12.7988 15.2171C12.4502 14.5814 12.1426 13.9251 11.8828 13.2484C11.7803 12.9544 11.7188 12.5785 11.7188 12.2982Z" fill="#28292D"/>
    <path d="M24.884 15.0806C24.8771 15.3061 24.9045 15.4702 24.884 15.6274C24.8361 16.0171 24.4943 16.2222 24.132 16.0718C23.9133 15.9829 23.8449 15.7915 23.8244 15.5796C23.8039 15.3198 23.7834 15.06 23.7424 14.8003C23.6056 14.0005 23.3869 13.228 22.9562 12.5307C22.6349 12.0112 22.2179 11.5874 21.6984 11.2524C21.0968 10.8628 20.4269 10.6372 19.7297 10.48C19.4289 10.4116 19.1213 10.3569 18.8136 10.3296C18.7384 10.3227 18.6701 10.3091 18.6017 10.2817C18.3898 10.2065 18.2804 10.0493 18.2941 9.82371C18.3215 9.42723 18.547 9.27 18.8547 9.27C20.0236 9.2495 21.09 9.55711 22.0675 10.1929C22.6418 10.5688 23.1545 11.0132 23.5783 11.5532C24.3986 12.5991 24.8771 13.7886 24.884 15.0806Z" fill="#28292D"/>
    <path d="M23.1143 14.9574C23.1074 15.0736 23.1279 15.224 23.0938 15.3743C23.0459 15.6273 22.8682 15.7708 22.6016 15.7777C22.3213 15.7845 22.1436 15.6615 22.082 15.4085C22.0547 15.3128 22.0547 15.2103 22.041 15.1077C21.9932 14.6497 21.8838 14.1986 21.7061 13.7679C21.46 13.1527 21.0156 12.7357 20.4072 12.4759C19.9834 12.2982 19.5459 12.1683 19.0947 12.0999C18.9717 12.0794 18.8555 12.0521 18.7461 11.9974C18.6914 11.9701 18.6436 11.9359 18.6094 11.888C18.459 11.7034 18.4658 11.5052 18.5479 11.3001C18.6162 11.1156 18.7598 11.013 18.958 10.9925C19.1221 10.972 19.2861 10.9993 19.4502 11.0267C19.9082 11.0951 20.3525 11.2113 20.7764 11.4095C21.3164 11.6693 21.7813 12.0316 22.1777 12.4827C22.5127 12.8724 22.7656 13.3031 22.9297 13.7884C23.0459 14.1644 23.1074 14.5404 23.1143 14.9574Z" fill="#28292D"/>
    <path d="M21.4121 14.8273C21.4121 14.964 21.4121 15.1008 21.3643 15.2306C21.2959 15.4289 21.1523 15.5451 20.9473 15.5724C20.7354 15.5998 20.5645 15.5246 20.4482 15.3469C20.3867 15.258 20.3594 15.1623 20.3457 15.0598C20.3184 14.8889 20.2979 14.7111 20.2295 14.5539C20.0859 14.2053 19.8125 14.0002 19.457 13.9045C19.3887 13.884 19.3135 13.8703 19.2451 13.8566C19.1904 13.843 19.1289 13.8293 19.0742 13.8156C18.8213 13.7404 18.6914 13.5832 18.6914 13.3644C18.6914 13.1047 18.835 12.8928 19.0742 12.8244C19.3066 12.756 19.5459 12.7697 19.7783 12.8312C20.332 12.9885 20.7422 13.3371 21.0635 13.8019C21.2754 14.1027 21.4121 14.4445 21.4121 14.8273Z" fill="#28292D"/>
</svg>
