<svg width="130" height="20" viewBox="0 0 130 20" fill="none" xmlns="http://www.w3.org/2000/svg">
    <path d="M8.96017 0.972307C9.31735 0.196711 10.4196 0.196711 10.7768 0.972307L12.9635 5.72057C13.1064 6.03093 13.3979 6.24683 13.7365 6.29307L18.8285 6.98855C19.6515 7.10097 19.9866 8.10977 19.3944 8.69228L15.6236 12.4012C15.3883 12.6326 15.2823 12.9652 15.3404 13.2901L16.2803 18.5494C16.429 19.3814 15.5424 20.0112 14.8057 19.5969L10.3586 17.0961C10.0543 16.9249 9.68267 16.9249 9.3783 17.0961L4.93124 19.5969C4.19453 20.0112 3.30798 19.3814 3.45667 18.5494L4.39656 13.2901C4.45462 12.9652 4.34866 12.6326 4.11339 12.4012L0.342589 8.69229C-0.24965 8.10977 0.0854275 7.10097 0.908493 6.98855L6.00046 6.29307C6.33901 6.24683 6.63051 6.03093 6.77345 5.72057L8.96017 0.972307Z" fill="#A67C52"/>
    <path d="M36.4892 0.914321C36.85 0.150445 37.9368 0.150443 38.2977 0.91432L40.5707 5.72655C40.7156 6.03347 41.0064 6.2459 41.3429 6.2907L46.5925 6.98979C47.4233 7.10043 47.7576 8.12267 47.1526 8.70279L43.299 12.3984C43.0565 12.631 42.947 12.9699 43.0076 13.3004L43.9731 18.568C44.1249 19.3964 43.2472 20.03 42.5087 19.6251L37.8742 17.084C37.5747 16.9198 37.2122 16.9198 36.9127 17.084L32.2782 19.6251C31.5397 20.03 30.662 19.3964 30.8138 18.568L31.7793 13.3004C31.8399 12.9699 31.7304 12.631 31.4879 12.3984L27.6343 8.70279C27.0293 8.12267 27.3636 7.10043 28.1944 6.98979L33.444 6.2907C33.7805 6.2459 34.0713 6.03347 34.2162 5.72655L36.4892 0.914321Z" fill="#A67C52"/>
    <path d="M64.0105 0.972307C64.3676 0.196711 65.4699 0.196711 65.8271 0.972307L68.0138 5.72057C68.1567 6.03093 68.4482 6.24683 68.7868 6.29307L73.8787 6.98855C74.7018 7.10097 75.0369 8.10977 74.4447 8.69228L70.6739 12.4012C70.4386 12.6326 70.3326 12.9652 70.3907 13.2901L71.3306 18.5494C71.4793 19.3814 70.5927 20.0112 69.856 19.5969L65.4089 17.0961C65.1046 16.9249 64.733 16.9249 64.4286 17.0961L59.9815 19.5969C59.2448 20.0112 58.3583 19.3814 58.507 18.5494L59.4469 13.2901C59.5049 12.9652 59.399 12.6326 59.1637 12.4012L55.3929 8.69229C54.8006 8.10977 55.1357 7.10097 55.9588 6.98855L61.0508 6.29307C61.3893 6.24683 61.6808 6.03093 61.8237 5.72057L64.0105 0.972307Z" fill="#A67C52"/>
    <path d="M91.5395 0.914321C91.9003 0.150445 92.9871 0.150443 93.3479 0.91432L95.621 5.72655C95.7659 6.03347 96.0567 6.2459 96.3932 6.2907L101.643 6.98979C102.474 7.10043 102.808 8.12267 102.203 8.70279L98.3493 12.3984C98.1068 12.631 97.9973 12.9699 98.0579 13.3004L99.0234 18.568C99.1752 19.3964 98.2975 20.03 97.559 19.6251L92.9245 17.084C92.625 16.9198 92.2624 16.9198 91.963 17.084L87.3285 19.6251C86.59 20.03 85.7123 19.3964 85.8641 18.568L86.8296 13.3004C86.8902 12.9699 86.7807 12.631 86.5382 12.3984L82.6846 8.70279C82.0796 8.12267 82.4139 7.10043 83.2447 6.98979L88.4943 6.2907C88.8308 6.2459 89.1216 6.03347 89.2665 5.72655L91.5395 0.914321Z" fill="#A67C52"/>
    <path d="M119.061 0.972307C119.418 0.196711 120.52 0.196711 120.877 0.972307L123.064 5.72057C123.207 6.03093 123.499 6.24683 123.837 6.29307L128.929 6.98855C129.752 7.10097 130.087 8.10977 129.495 8.69228L125.724 12.4012C125.489 12.6326 125.383 12.9652 125.441 13.2901L126.381 18.5494C126.53 19.3814 125.643 20.0112 124.906 19.5969L120.459 17.0961C120.155 16.9249 119.783 16.9249 119.479 17.0961L115.032 19.5969C114.295 20.0112 113.409 19.3814 113.557 18.5494L114.497 13.2901C114.555 12.9652 114.449 12.6326 114.214 12.4012L110.443 8.69229C109.851 8.10977 110.186 7.10097 111.009 6.98855L116.101 6.29307C116.44 6.24683 116.731 6.03093 116.874 5.72057L119.061 0.972307Z" fill="#A67C52"/>
</svg>
