<svg width="18" height="21" viewBox="0 0 18 21" fill="none" xmlns="http://www.w3.org/2000/svg">
    <path d="M8.59375 1.52588e-05C6.31534 0.0024345 4.13099 0.850664 2.51991 2.35861C0.908825 3.86656 0.0025847 5.91109 0 8.04365C0 14.9264 7.8125 20.1274 8.14453 20.3468C8.2776 20.4297 8.43389 20.4739 8.59375 20.4739C8.75361 20.4739 8.9099 20.4297 9.04297 20.3468C9.375 20.1274 17.1875 14.9264 17.1875 8.04365C17.1849 5.91109 16.2787 3.86656 14.6676 2.35861C13.0565 0.850664 10.8722 0.0024345 8.59375 1.52588e-05ZM8.59375 5.11869C9.21182 5.11869 9.816 5.29024 10.3299 5.61164C10.8438 5.93304 11.2444 6.38985 11.4809 6.92432C11.7174 7.45878 11.7793 8.0469 11.6587 8.61428C11.5381 9.18167 11.2405 9.70285 10.8035 10.1119C10.3664 10.521 9.8096 10.7995 9.20341 10.9124C8.59722 11.0253 7.96888 10.9673 7.39786 10.746C6.82684 10.5246 6.33879 10.1497 5.99541 9.66867C5.65203 9.18766 5.46875 8.62215 5.46875 8.04365C5.46875 7.2679 5.79799 6.52393 6.38404 5.97539C6.97009 5.42686 7.76495 5.11869 8.59375 5.11869Z" fill="#FF5A3C"/>
</svg>
