<svg width="35" height="35" viewBox="0 0 35 35" fill="none" xmlns="http://www.w3.org/2000/svg">
    <path fill-rule="evenodd" clip-rule="evenodd" d="M33.1338 9.02344C33.3772 8.25234 33.1338 7.6918 32.0571 7.6918H28.4771C27.5741 7.6918 27.1571 8.18262 26.9138 8.70762C26.9138 8.70762 25.0722 13.192 22.5005 16.0993C21.6665 16.9401 21.2844 17.2204 20.8325 17.2204C20.5892 17.2204 20.2761 16.9401 20.2761 16.1697V8.98721C20.2761 8.07666 19.9985 7.65625 19.2336 7.65625H13.6035C13.0471 7.65625 12.6998 8.07666 12.6998 8.49707C12.6998 9.37275 13.9856 9.5833 14.1244 12.0354V17.3633C14.1244 18.5192 13.9193 18.7305 13.4641 18.7305C12.248 18.7305 9.29414 14.2112 7.52227 9.06172C7.17774 8.0418 6.82774 7.65625 5.92402 7.65625H2.30986C1.26738 7.65625 1.09375 8.14639 1.09375 8.67207C1.09375 9.61816 2.30986 14.3821 6.75801 20.6876C9.71182 24.9942 13.9166 27.3089 17.7044 27.3089C19.9985 27.3089 20.2761 26.7832 20.2761 25.9075V22.6495C20.2761 21.5988 20.4846 21.4238 21.2147 21.4238C21.7355 21.4238 22.6741 21.7034 24.7939 23.7706C27.2262 26.2227 27.6432 27.3438 28.9987 27.3438H32.578C33.6205 27.3438 34.1072 26.8181 33.829 25.8022C33.5166 24.7864 32.3347 23.3153 30.8055 21.564C29.9715 20.5837 28.7205 19.4975 28.3384 18.9718C27.8175 18.2711 27.9563 17.9908 28.3384 17.3605C28.3035 17.3605 32.6826 11.1248 33.1338 9.0207" fill="white"/>
</svg>
