<svg width="16" height="16" viewBox="0 0 16 16" fill="none" xmlns="http://www.w3.org/2000/svg">
<g clip-path="url(#clip0_256_3606)">
<g filter="url(#filter0_d_256_3606)">
<path fill-rule="evenodd" clip-rule="evenodd" d="M6.89874 7.36902C6.94211 7.5725 6.96494 7.78358 6.96494 7.99999C6.96494 8.21641 6.94211 8.42749 6.89874 8.63096L10.7169 10.54C11.269 9.90635 12.082 9.50588 12.9885 9.50588C14.6518 9.50588 16.0002 10.8543 16.0002 12.5176C16.0002 14.181 14.6518 15.5294 12.9885 15.5294C11.3251 15.5294 9.9767 14.181 9.9767 12.5176C9.9767 12.3012 9.99953 12.0901 10.0429 11.8867L6.22475 9.9776C5.67261 10.6113 4.85966 11.0118 3.95317 11.0118C2.28982 11.0118 0.941406 9.66334 0.941406 7.99999C0.941406 6.33664 2.28982 4.98823 3.95317 4.98823C4.85966 4.98823 5.67261 5.38871 6.22475 6.02239L10.0429 4.11331C9.99953 3.90984 9.9767 3.69876 9.9767 3.48235C9.9767 1.81899 11.3251 0.470581 12.9885 0.470581C14.6518 0.470581 16.0002 1.81899 16.0002 3.48235C16.0002 5.1457 14.6518 6.49411 12.9885 6.49411C12.082 6.49411 11.269 6.09363 10.7169 5.45995L6.89874 7.36902ZM3.95317 9.50588C4.78485 9.50588 5.45905 8.83167 5.45905 7.99999C5.45905 7.16832 4.78485 6.49411 3.95317 6.49411C3.1215 6.49411 2.44729 7.16832 2.44729 7.99999C2.44729 8.83167 3.1215 9.50588 3.95317 9.50588ZM12.9885 4.98823C13.8201 4.98823 14.4943 4.31402 14.4943 3.48235C14.4943 2.65067 13.8201 1.97646 12.9885 1.97646C12.1568 1.97646 11.4826 2.65067 11.4826 3.48235C11.4826 4.31402 12.1568 4.98823 12.9885 4.98823ZM12.9885 14.0235C13.8201 14.0235 14.4943 13.3493 14.4943 12.5176C14.4943 11.686 13.8201 11.0118 12.9885 11.0118C12.1568 11.0118 11.4826 11.686 11.4826 12.5176C11.4826 13.3493 12.1568 14.0235 12.9885 14.0235Z" fill="#A6ABBE"/>
</g>
</g>
<defs>
<filter id="filter0_d_256_3606" x="-6.82324" y="-6.29413" width="30.5879" height="30.5883" filterUnits="userSpaceOnUse" color-interpolation-filters="sRGB">

<feBlend mode="normal" in="SourceGraphic" in2="effect1_dropShadow_256_3606" result="shape"/>
</filter>
<clipPath id="clip0_256_3606">
<rect width="16" height="16" fill="white"/>
</clipPath>
</defs>
</svg>
